<?xml version="1.0" encoding="UTF-8" standalone="no"?>
<!-- Created with Inkscape (http://www.inkscape.org/) -->

<svg
    xmlns:dc="http://purl.org/dc/elements/1.1/"
    xmlns:cc="http://creativecommons.org/ns#"
    xmlns:rdf="http://www.w3.org/1999/02/22-rdf-syntax-ns#"
    xmlns:sodipodi="http://sodipodi.sourceforge.net/DTD/sodipodi-0.dtd"
    xmlns:inkscape="http://www.inkscape.org/namespaces/inkscape"
    xmlns="http://www.w3.org/2000/svg"
    width="8.1724234mm"
    height="7.8852162mm"
    viewBox="0 0 8.1724233 7.8852159"
    version="1.1"
    id="svg4058"
    inkscape:version="0.92.3 (unknown)"
    sodipodi:docname="star.svg">
    <defs
        id="defs4052" />
    <sodipodi:namedview
        id="base"
        pagecolor="#ffffff"
        bordercolor="#666666"
        borderopacity="1.0"
        inkscape:pageopacity="0.0"
        inkscape:pageshadow="2"
        inkscape:zoom="7.9195959"
        inkscape:cx="59.867306"
        inkscape:cy="-13.056581"
        inkscape:document-units="mm"
        inkscape:current-layer="g4118"
        showgrid="false"
        inkscape:window-width="1920"
        inkscape:window-height="1010"
        inkscape:window-x="0"
        inkscape:window-y="34"
        inkscape:window-maximized="1" />
    <metadata
        id="metadata4055">
        <rdf:RDF>
            <cc:Work
                rdf:about="">
                <dc:format>image/svg+xml</dc:format>
                <dc:type
                    rdf:resource="http://purl.org/dc/dcmitype/StillImage" />
                <dc:title></dc:title>
            </cc:Work>
        </rdf:RDF>
    </metadata>
    <g
        inkscape:label="Layer 1"
        inkscape:groupmode="layer"
        id="layer1"
        transform="translate(-74.234791,-92.686112)">
        <g
            id="g4080"
            transform="matrix(0.35277779,0,0,0.35277779,101.92758,94.27877)">
            <g
                id="g4118"
                transform="translate(-81.915288,-7.8201969)">
                <path
                    id="path4103"
                    d="m 14.33,3.4 c 3.51,-0.86 3.57,4.38 4.66,6.57 2.23,0.02 4.6,-0.12 6.79,0.34 2.71,3.56 -2.14,5.34 -4.31,7.23 0.41,2.08 2.23,5.22 1.41,7.23 -2.3,2.64 -5.83,-1.34 -7.87,-2.5 -2.07,1.2 -4.69,4.26 -7.29,3.13 C 5.59,23.87 8.22,19.59 8.54,17.55 6.35,15.64 1.52,13.91 4.21,10.3 6.4,9.84 8.77,9.99 11,9.97 11.89,8.16 12.18,3.98 14.33,3.4 Z"
                    inkscape:connector-curvature="0"
                    style="fill:#f39500" />
                <path
                    id="path4105"
                    d="m 14.83,5.42 c 1.1,2.12 1.93,4.26 2.59,6.56 2.49,0.08 4.98,0.15 7.47,0.23 -1.96,1.54 -3.93,3.07 -5.89,4.62 0.73,2.34 1.46,4.69 2.18,7.04 -2.06,-1.37 -4.11,-2.75 -6.17,-4.12 -2.07,1.36 -4.13,2.75 -6.2,4.12 0.73,-2.35 1.47,-4.7 2.2,-7.05 -1.96,-1.54 -3.94,-3.06 -5.9,-4.61 2.5,-0.07 5,-0.15 7.5,-0.23 0.7,-2.2 1.43,-4.39 2.22,-6.56 z"
                    inkscape:connector-curvature="0"
                    style="fill:#faec01" />
            </g>
        </g>
    </g>
</svg>
