<?xml version="1.0" encoding="UTF-8" standalone="no"?>
<!-- Created with Inkscape (http://www.inkscape.org/) -->

<svg
    xmlns:dc="http://purl.org/dc/elements/1.1/"
    xmlns:cc="http://creativecommons.org/ns#"
    xmlns:rdf="http://www.w3.org/1999/02/22-rdf-syntax-ns#"
    xmlns:sodipodi="http://sodipodi.sourceforge.net/DTD/sodipodi-0.dtd"
    xmlns:inkscape="http://www.inkscape.org/namespaces/inkscape"
    xmlns="http://www.w3.org/2000/svg"
    width="8.5340786mm"
    height="8.5333176mm"
    viewBox="0 0 8.5340786 8.5333173"
    version="1.1"
    id="svg4058"
    inkscape:version="0.92.3 (unknown)"
    sodipodi:docname="sun.svg">
    <defs
        id="defs4052" />
    <sodipodi:namedview
        id="base"
        pagecolor="#ffffff"
        bordercolor="#666666"
        borderopacity="1.0"
        inkscape:pageopacity="0.0"
        inkscape:pageshadow="2"
        inkscape:zoom="11.2"
        inkscape:cx="43.900069"
        inkscape:cy="9.7815553"
        inkscape:document-units="mm"
        inkscape:current-layer="g4308"
        showgrid="false"
        inkscape:window-width="1920"
        inkscape:window-height="1010"
        inkscape:window-x="0"
        inkscape:window-y="34"
        inkscape:window-maximized="1" />
    <metadata
        id="metadata4055">
        <rdf:RDF>
            <cc:Work
                rdf:about="">
                <dc:format>image/svg+xml</dc:format>
                <dc:type
                    rdf:resource="http://purl.org/dc/dcmitype/StillImage" />
                <dc:title></dc:title>
            </cc:Work>
        </rdf:RDF>
    </metadata>
    <g
        inkscape:label="Layer 1"
        inkscape:groupmode="layer"
        id="layer1"
        transform="translate(-61.797737,-92.767937)">
        <g
            id="g4308"
            transform="matrix(0.35277778,0,0,0.35277778,60.774527,91.740191)">
            <path
                id="path4269"
                d="m 14.1,3.04 c 2.82,-0.9 2.76,3.23 3.78,4.96 1.62,-0.39 3.21,-0.8 4.89,-0.84 -0.17,1.66 -0.58,3.26 -0.99,4.88 1.7,0.62 3.53,1.18 5.12,2.05 1.18,2.85 -3.41,2.83 -5.1,3.85 0.39,1.62 0.79,3.24 0.98,4.91 -1.67,-0.07 -3.28,-0.45 -4.9,-0.83 -0.64,1.71 -1.16,3.38 -2,5 -2.79,0.7 -2.75,-3.25 -3.76,-5 C 10.49,22.4 8.88,22.78 7.2,22.87 7.36,21.17 7.86,19.56 8.39,17.94 6.59,17.33 4.69,16.77 3,15.91 2.2,13.02 6.43,13.08 8.22,12.06 7.81,10.44 7.4,8.84 7.24,7.18 8.92,7.19 10.5,7.6 12.12,7.99 12.72,6.34 13.28,4.6 14.1,3.04 Z"
                inkscape:connector-curvature="0"
                style="fill:#fcd518" />
            <path
                id="path4271"
                d="m 14.84,4.43 0.44,1.37 c 0.4,1.2 0.78,2.41 1.16,3.63 L 13.69,9.49 C 14.07,7.8 14.45,6.11 14.84,4.43 Z"
                inkscape:connector-curvature="0"
                style="fill:#e50112" />
            <path
                id="path4273"
                d="m 8.21,8.02 c 1.51,0.45 2.81,1.29 3.97,2.33 -0.57,0.61 -1.18,1.16 -1.82,1.67 -0.95,-1.21 -1.73,-2.51 -2.15,-4 z"
                inkscape:connector-curvature="0"
                style="fill:#e50112" />
            <path
                id="path4275"
                d="m 21.83,7.96 c -0.53,1.47 -1.22,2.86 -2.18,4.09 -0.66,-0.52 -1.28,-1.09 -1.86,-1.71 1.19,-1.06 2.57,-1.8 4.04,-2.38 z"
                inkscape:connector-curvature="0"
                style="fill:#e50112" />
            <path
                id="path4277"
                d="m 13.45,11.41 c 2.51,-1.21 5.44,0.92 5.5,3.59 -0.07,3 -3.61,5.12 -6.14,3.2 -2.62,-1.89 -2.16,-5.37 0.64,-6.79 z"
                inkscape:connector-curvature="0"
                style="fill:#e50112" />
            <path
                id="path4279"
                d="m 4.33,14.44 c 1.46,-0.1 2.96,-0.28 4.42,-0.2 l 1.57,2.05 C 8.82,16.02 7.31,15.76 5.84,15.37 Z"
                inkscape:connector-curvature="0"
                style="fill:#e50112" />
            <path
                id="path4281"
                d="m 20.58,13.5 c 1.68,0.54 3.36,1.06 5.02,1.66 -1.67,0.42 -3.35,0.81 -5.03,1.18 z"
                inkscape:connector-curvature="0"
                style="fill:#e50112" />
            <path
                id="path4283"
                d="m 12.22,19.59 c -1.2,1.03 -2.56,1.78 -4,2.41 0.39,-1.16 0.82,-2.45 1.6,-3.4 1,-0.96 1.81,0.23 2.4,0.99 z"
                inkscape:connector-curvature="0"
                style="fill:#e50112" />
            <path
                id="path4285"
                d="m 19.65,17.94 c 0.96,1.24 1.65,2.62 2.19,4.09 -1.48,-0.57 -2.86,-1.31 -4.05,-2.37 0.57,-0.62 1.19,-1.19 1.86,-1.72 z"
                inkscape:connector-curvature="0"
                style="fill:#e50112" />
            <path
                id="path4287"
                d="m 13.65,20.54 2.85,0.03 c -0.54,1.69 -1.06,3.37 -1.66,5.04 -0.42,-1.69 -0.82,-3.38 -1.19,-5.07 z"
                inkscape:connector-curvature="0"
                style="fill:#e50112" />
        </g>
    </g>
</svg>
