<?xml version="1.0" encoding="UTF-8" standalone="no"?>
<!-- Created with Inkscape (http://www.inkscape.org/) -->

<svg
    xmlns:dc="http://purl.org/dc/elements/1.1/"
    xmlns:cc="http://creativecommons.org/ns#"
    xmlns:rdf="http://www.w3.org/1999/02/22-rdf-syntax-ns#"
    xmlns:sodipodi="http://sodipodi.sourceforge.net/DTD/sodipodi-0.dtd"
    xmlns:inkscape="http://www.inkscape.org/namespaces/inkscape"
    xmlns="http://www.w3.org/2000/svg"
    width="6.3177142mm"
    height="5.083528mm"
    viewBox="0 0 6.3177142 5.083528"
    version="1.1"
    id="svg4012"
    inkscape:version="0.92.3 (unknown)"
    sodipodi:docname="tap.svg">
    <defs
        id="defs4006" />
    <sodipodi:namedview
        id="base"
        pagecolor="#ffffff"
        bordercolor="#666666"
        borderopacity="1.0"
        inkscape:pageopacity="0.0"
        inkscape:pageshadow="2"
        inkscape:zoom="5.6"
        inkscape:cx="20.264369"
        inkscape:cy="16.863552"
        inkscape:document-units="mm"
        inkscape:current-layer="g4031"
        showgrid="false"
        inkscape:window-width="1920"
        inkscape:window-height="1010"
        inkscape:window-x="0"
        inkscape:window-y="34"
        inkscape:window-maximized="1" />
    <metadata
        id="metadata4009">
        <rdf:RDF>
            <cc:Work
                rdf:about="">
                <dc:format>image/svg+xml</dc:format>
                <dc:type
                    rdf:resource="http://purl.org/dc/dcmitype/StillImage" />
                <dc:title></dc:title>
            </cc:Work>
        </rdf:RDF>
    </metadata>
    <g
        inkscape:label="Layer 1"
        inkscape:groupmode="layer"
        id="layer1"
        transform="translate(-85.104948,-242.88238)">
        <g
            id="g4031"
            transform="matrix(0.35277778,0,0,0.35277778,83.154762,240.30357)">
            <path
                id="path4016"
                d="M 5.67,7.38 C 11.6,7.33 17.5,7.68 23.42,7.31 23.44,12.1 23.44,16.9 23.43,21.69 17.47,21.42 11.53,21.48 5.58,21.72 5.65,16.95 5.37,12.14 5.67,7.38 Z"
                inkscape:connector-curvature="0"
                style="fill:#e50112" />
            <path
                id="path4018"
                d="m 15.95,9.88 c 3.09,1.2 1.9,5.01 5.78,4.84 -1.21,1.51 -2.39,3.04 -3.52,4.62 -1.16,-1.6 -2.33,-3.18 -3.51,-4.76 l 3.13,-0.29 c -0.88,-1.11 -1.52,-2.75 -3.01,-3.13 -2.39,-0.62 -4.71,1.43 -4.36,3.86 0.28,2.36 3.39,2.46 3.68,4.98 C 11.47,19.04 9.18,18.22 8.85,14.99 8.52,11.16 12.4,8.37 15.95,9.88 Z"
                inkscape:connector-curvature="0"
                style="fill:#ffffff" />
        </g>
    </g>
</svg>
