<?xml version="1.0" encoding="UTF-8" standalone="no"?>
<svg
    xmlns:dc="http://purl.org/dc/elements/1.1/"
    xmlns:cc="http://creativecommons.org/ns#"
    xmlns:rdf="http://www.w3.org/1999/02/22-rdf-syntax-ns#"
    xmlns="http://www.w3.org/2000/svg"
    id="svg4373"
    version="1.1"
    width="29.0pt"
    height="17.0pt"
    viewBox="0 0 29 17">
    <metadata
        id="metadata4379">
        <rdf:RDF>
            <cc:Work
                rdf:about="">
                <dc:format>image/svg+xml</dc:format>
                <dc:type
                    rdf:resource="http://purl.org/dc/dcmitype/StillImage" />
                <dc:title></dc:title>
            </cc:Work>
        </rdf:RDF>
    </metadata>
    <defs
        id="defs4377" />
    <path
        id="path4341"
        fill="#c88fa6"
        d="M 0.00 0.00 L 28.26 0.00 L 27.69 0.73 C 18.72 1.28 9.68 0.91 0.70 0.93 C 0.47 6.00 0.48 11.02 0.75 16.10 C 9.66 15.71 18.23 14.71 27.11 16.45 L 27.60 17.00 L 0.06 17.00 L 0.00 16.94 L 0.00 0.00 Z" />
    <path
        id="path4345"
        fill="#dc3888"
        d="M 0.70 0.93 C 9.68 0.91 18.72 1.28 27.69 0.73 L 28.06 1.63 C 27.92 6.08 27.88 10.52 28.23 14.95 L 27.11 16.45 C 18.23 14.71 9.66 15.71 0.75 16.10 C 0.48 11.02 0.47 6.00 0.70 0.93 Z" />
    <path
        id="path4347"
        fill="#c88fa6"
        d="M 28.06 1.63 L 29.00 1.51 L 29.00 15.39 L 28.23 14.95 C 27.88 10.52 27.92 6.08 28.06 1.63 Z" />
    <path
        id="path4371"
        fill="#fffefe"
        d="M 0.00 16.94 L 0.06 17.00 L 0.00 17.00 L 0.00 16.94 Z" />
    <text
     transform="scale(1.020815,0.97960942)"
     id="text3612-6"
     y="12.451142"
     x="2.0339501"
     style="font-style:normal;font-variant:normal;font-weight:normal;font-stretch:normal;font-size:12.54800034px;line-height:1.25;font-family:sans-serif;-inkscape-font-specification:'sans-serif, Normal';font-variant-ligatures:normal;font-variant-caps:normal;font-variant-numeric:normal;font-feature-settings:normal;text-align:start;letter-spacing:0px;word-spacing:0px;writing-mode:lr-tb;text-anchor:start;fill:#ffffff;fill-opacity:1;stroke:none;stroke-width:0.31370172;stroke-opacity:1"
     xml:space="preserve"><tspan
       style="font-style:normal;font-variant:normal;font-weight:normal;font-stretch:normal;font-family:Arial;-inkscape-font-specification:Arial"
       y="12.451142"
       x="2.0339501"
       id="tspan4399">Trig.</tspan></text>
</svg>
