<?xml version="1.0" encoding="UTF-8" standalone="no"?>
<svg
    xmlns:osb="http://www.openswatchbook.org/uri/2009/osb"
    xmlns:dc="http://purl.org/dc/elements/1.1/"
    xmlns:cc="http://creativecommons.org/ns#"
    xmlns:rdf="http://www.w3.org/1999/02/22-rdf-syntax-ns#"
    xmlns:xlink="http://www.w3.org/1999/xlink"
    xmlns="http://www.w3.org/2000/svg"
    id="svg54"
    version="1.1"
    width="22.139999pt"
    height="20.200563pt"
    viewBox="0 0 22.139999 20.200563">
    <metadata
        id="metadata60">
        <rdf:RDF>
            <cc:Work
                rdf:about="">
                <dc:format>image/svg+xml</dc:format>
                <dc:type
                    rdf:resource="http://purl.org/dc/dcmitype/StillImage" />
                <dc:title></dc:title>
            </cc:Work>
        </rdf:RDF>
    </metadata>
    <defs
        id="defs58">
        <linearGradient
            id="linearGradient2940">
            <stop
                id="stop2936"
                offset="0"
                style="stop-color:#ffffff;stop-opacity:1;" />
            <stop
                id="stop2938"
                offset="1"
                style="stop-color:#ffffff;stop-opacity:0;" />
        </linearGradient>
        <linearGradient
            osb:paint="solid"
            id="linearGradient2906">
            <stop
                id="stop2904"
                offset="0"
                style="stop-color:#ffffff;stop-opacity:1;" />
        </linearGradient>
        <radialGradient
            gradientUnits="userSpaceOnUse"
            gradientTransform="matrix(1,0,0,2.0645704,0,-9.5465968)"
            r="2.7166488"
            fy="8.9675581"
            fx="9.625536"
            cy="8.9675581"
            cx="9.625536"
            id="radialGradient2942"
            xlink:href="#linearGradient2940" />
    </defs>
    <path
        style="fill:#4e4643"
        id="path38"
        d="m 11.11,0 c 3.8,1.18 7.38,3.65 11.03,5.33 -0.19,2.58 -0.05,5.15 -0.04,7.74 -2.94,2.45 -6.37,4.37 -9.51,6.56 -1.35,1.02 -2.45,0.5 -3.77,-0.22 C 6.03,17.84 3.1,16.45 0.42,14.71 -0.28,12.44 0.53,9.46 0,6.99 3.49,4.63 7.26,1.58 11.11,0 Z" />
    <path
        style="fill:#ffffff"
        id="path40"
        d="m 11.13,1.7 c 3.15,1.4 6.19,3.09 9.24,4.7 -1.95,1.39 -3.98,2.62 -5.86,4.11 -1.06,1.05 -2.41,1.56 -4.03,1.52 l 0.2,1.15 -0.3,-0.01 C 7.87,10.78 4.89,9.4 1.89,7.77 4.86,5.59 7.99,3.61 11.13,1.7 Z" />
    <path
        style="fill:#ffffff"
        id="path42"
        d="m 20.24,9.09 c -0.07,1.23 -1.85,2.4 -3.01,2.14 C 17.01,9.8 19.05,8.9 20.24,9.09 Z" />
    <path
        style="fill:#ffffff"
        id="path44"
        d="m 2.08,10.17 c 2.92,0.9 5.06,2.85 8.3,3 0.1,0.02 0.2,0.03 0.3,0.01 2.38,-0.22 4.32,-1.27 6.55,-1.95 -1.63,1.45 -3.41,2.72 -5.04,4.16 -1,0.16 -1.99,0.32 -2.99,0.48 -1.45,-3.11 -5.53,-3.11 -7.12,-5.7 z" />
    <path
        style="fill:#ffffff"
        id="path46"
        d="M 20.24,12.06 C 20.13,13.33 18.4,14.35 17.22,14.19 17,12.77 19.04,11.8 20.24,12.06 Z" />
    <path
        style="fill:#ffffff"
        id="path48"
        d="m 1.85,13.02 c 3.04,1.46 6.95,2.5 9.26,5 C 8.97,17.87 7.44,16.64 5.53,15.69 4.25,14.92 2.67,14.32 1.85,13.02 Z" />
    <path
        style="fill:#4e4643"
        id="path50"
        d="m 10.38,13.17 0.3,0.01 c -0.1,0.02 -0.2,0.01 -0.3,-0.01 z" />
    <path
        style="fill:#ffffff"
        id="path52"
        d="m 17.22,14.19 c -1.76,1.53 -3.82,3.23 -6.11,3.83 0.36,-0.88 0.72,-1.75 1.08,-2.63 1.86,-0.02 3.33,-0.55 5.03,-1.2 z" />
    <text
     id="text64"
     y="16.794455"
     x="5.7068529"
     style="font-style:normal;font-weight:normal;font-size:19.39903831px;line-height:1.25;font-family:sans-serif;letter-spacing:0px;word-spacing:0px;opacity:1;fill:#e3007f;fill-opacity:1;stroke:#ffffff;stroke-width:1.26713252;stroke-linecap:butt;stroke-linejoin:miter;stroke-miterlimit:4;stroke-dasharray:none;stroke-opacity:1;paint-order:markers stroke fill"
     xml:space="preserve"><tspan
       style="font-style:normal;font-variant:normal;font-weight:bold;font-stretch:normal;font-family:Arial;-inkscape-font-specification:'Arial Bold';fill:#e3007f;fill-opacity:1;stroke:#ffffff;stroke-width:1.26713252;stroke-linecap:butt;stroke-linejoin:miter;stroke-miterlimit:4;stroke-dasharray:none;stroke-opacity:1;paint-order:markers stroke fill"
       y="16.794455"
       x="5.7068529"
       id="tspan62">3</tspan></text>
</svg>
