<?xml version="1.0" encoding="UTF-8" standalone="no"?>
<!-- Created with Inkscape (http://www.inkscape.org/) -->

<svg
    xmlns:dc="http://purl.org/dc/elements/1.1/"
    xmlns:cc="http://creativecommons.org/ns#"
    xmlns:rdf="http://www.w3.org/1999/02/22-rdf-syntax-ns#"
    xmlns:sodipodi="http://sodipodi.sourceforge.net/DTD/sodipodi-0.dtd"
    xmlns:inkscape="http://www.inkscape.org/namespaces/inkscape"
    xmlns="http://www.w3.org/2000/svg"
    width="11.451167mm"
    height="11.02628mm"
    viewBox="0 0 11.451167 11.02628"
    version="1.1"
    id="svg4058"
    inkscape:version="0.92.3 (unknown)"
    sodipodi:docname="flower.svg">
    <defs
        id="defs4052" />
    <sodipodi:namedview
        id="base"
        pagecolor="#ffffff"
        bordercolor="#666666"
        borderopacity="1.0"
        inkscape:pageopacity="0.0"
        inkscape:pageshadow="2"
        inkscape:zoom="7.9195959"
        inkscape:cx="-46.491695"
        inkscape:cy="7.3313182"
        inkscape:document-units="mm"
        inkscape:current-layer="g4080"
        showgrid="false"
        inkscape:window-width="1920"
        inkscape:window-height="1010"
        inkscape:window-x="0"
        inkscape:window-y="34"
        inkscape:window-maximized="1" />
    <metadata
        id="metadata4055">
        <rdf:RDF>
            <cc:Work
                rdf:about="">
                <dc:format>image/svg+xml</dc:format>
                <dc:type
                    rdf:resource="http://purl.org/dc/dcmitype/StillImage" />
                <dc:title></dc:title>
            </cc:Work>
        </rdf:RDF>
    </metadata>
    <g
        inkscape:label="Layer 1"
        inkscape:groupmode="layer"
        id="layer1"
        transform="translate(-102.37561,-94.939346)">
        <g
            id="g4080"
            transform="matrix(0.35277779,0,0,0.35277779,101.92758,94.27877)">
            <path
                id="path4062"
                d="m 14.38,2.39 c 1.72,-0.69 4.52,-0.69 6.24,0 1.87,1.59 2.37,4.77 3.4,6.95 2.45,0.42 6.17,-0.27 8.09,1.5 0.87,1.45 1.49,3.39 1.62,5.08 -0.49,2.5 -3.87,4.18 -5.54,5.95 0.34,2.39 2.11,5.8 0.96,8.1 -1.16,1.3 -2.71,2.41 -4.29,3.15 -2.67,0.17 -5.16,-2.38 -7.42,-3.57 -2.19,1.25 -4.65,3.76 -7.3,3.56 C 8.57,32.39 7.01,31.27 5.84,29.97 4.7,27.67 6.47,24.26 6.81,21.87 5.14,20.1 1.76,18.42 1.27,15.92 1.39,14.23 2.02,12.29 2.89,10.84 4.87,9.07 8.49,9.75 10.98,9.34 12,7.17 12.5,3.97 14.38,2.39 Z"
                inkscape:connector-curvature="0"
                style="fill:#f8d6e5" />
            <path
                id="path4064"
                d="m 16.02,4.07 c 0.54,1.29 1.04,2.6 1.49,3.93 0.44,-1.33 0.93,-2.65 1.46,-3.95 3.48,3.81 1.85,7.64 0.32,11.87 1.83,-1.26 3.69,-2.99 5.78,-3.81 1.79,-0.24 3.68,-0.11 5.47,0.12 -0.77,1.08 -1.74,1.92 -2.71,2.8 1.19,0.09 2.38,0.2 3.57,0.32 -1.87,4.54 -6.99,4.14 -11.04,3.75 3.58,3.07 7.29,4.29 6.65,9.95 -1.08,-0.66 -2.13,-1.36 -3.21,-2.02 0.29,1.34 0.53,2.69 0.74,4.04 -1.62,-0.86 -3.42,-1.53 -4.49,-3.1 -1.43,-1.82 -1.73,-4.57 -2.58,-6.7 -0.74,2.16 -1.1,4.86 -2.52,6.7 -1.05,1.56 -2.89,2.25 -4.49,3.11 0.21,-1.36 0.45,-2.71 0.74,-4.05 -1.08,0.66 -2.13,1.36 -3.22,2.02 0.06,-1.6 -0.21,-3 0.69,-4.41 1.26,-2.73 3.85,-3.39 5.97,-5.54 C 10.57,19.48 5.49,19.89 3.6,15.36 4.78,15.23 5.98,15.12 7.17,15.03 6.2,14.14 5.23,13.31 4.46,12.23 6.25,12 8.14,11.87 9.93,12.11 c 2.09,0.82 3.95,2.55 5.78,3.81 C 14.19,11.7 12.55,7.87 16.02,4.07 Z"
                inkscape:connector-curvature="0"
                style="fill:#e95b74" />
            <path
                id="path4066"
                d="m 16.36,17.24 c 1.59,-1.11 3.65,0.46 2.18,2.11 -1.36,1.43 -3.45,-0.73 -2.18,-2.11 z"
                inkscape:connector-curvature="0"
                style="fill:#f8d6e5" />
        </g>
    </g>
</svg>
