<?xml version="1.0" encoding="UTF-8" standalone="no"?>
<svg
    xmlns:dc="http://purl.org/dc/elements/1.1/"
    xmlns:cc="http://creativecommons.org/ns#"
    xmlns:rdf="http://www.w3.org/1999/02/22-rdf-syntax-ns#"
    xmlns:sodipodi="http://sodipodi.sourceforge.net/DTD/sodipodi-0.dtd"
    xmlns:inkscape="http://www.inkscape.org/namespaces/inkscape"
    xmlns="http://www.w3.org/2000/svg"
    viewBox="0 0 22.108589 22.11483"
    height="22.11483pt"
    width="22.108589pt"
    version="1.1"
    id="svg3518"
    sodipodi:docname="moon.svg"
    inkscape:version="0.92.3 (2405546, 2018-03-11)">
  <metadata
     id="metadata3524">
    <rdf:RDF>
      <cc:Work
         rdf:about="">
        <dc:format>image/svg+xml</dc:format>
        <dc:type
           rdf:resource="http://purl.org/dc/dcmitype/StillImage" />
        <dc:title></dc:title>
      </cc:Work>
    </rdf:RDF>
  </metadata>
  <defs
     id="defs3522" />
  <sodipodi:namedview
     pagecolor="#ffffff"
     bordercolor="#666666"
     borderopacity="1"
     objecttolerance="10"
     gridtolerance="10"
     guidetolerance="10"
     inkscape:pageopacity="0"
     inkscape:pageshadow="2"
     inkscape:window-width="640"
     inkscape:window-height="480"
     id="namedview3520"
     showgrid="false"
     inkscape:zoom="5.9"
     inkscape:cx="15.475319"
     inkscape:cy="14.146374"
     inkscape:window-x="0"
     inkscape:window-y="0"
     inkscape:window-maximized="0"
     inkscape:current-layer="svg3518" />
  <path
     d="m 16.836489,0.62504855 c -2.42,0.62000005 -5.85,0.52000005 -7.5699999,2.55000005 -2.56,2.53 -2.51,7.1000004 0.12,9.5500004 2.5099999,2.55 6.9299999,2.54 9.4399999,0 2.05,-1.77 1.95,-5.2200004 2.6,-7.6900004 0.49,4.27 1.66,8.4600004 -1,12.2900004 -3.61,5.7 -12.6899999,6.4 -17.2699999,1.63 -4.77,-4.56 -4.05999997,-13.6800004 1.63,-17.2700004 3.79,-2.62000005 7.8299999,-1.52000005 12.0499999,-1.06000005 z"
     id="path3514"
     inkscape:connector-curvature="0"
     style="fill:#18a8ea" />
  <path
     d="m 8.0664891,1.3450486 c -0.82,1.72 -1.77,3.48 -2.26,5.33 -0.65,4.1500004 2.14,8.3600004 6.2599999,9.3300004 3.34,1.01 5.89,-0.89 8.81,-2.19 -2.32,3.11 -4.04,6.14 -8.28,6.68 -5.9199999,1.05 -11.5499999,-4 -11.0799999,-10 0.09,-4.6600004 3.22,-6.6300004 6.55,-9.1500004 z"
     id="path3516"
     inkscape:connector-curvature="0"
     style="fill:#8ed2f4" />
</svg>
