<?xml version="1.0" encoding="UTF-8" standalone="no"?>
<!-- Created with Inkscape (http://www.inkscape.org/) -->

<svg
    xmlns:dc="http://purl.org/dc/elements/1.1/"
    xmlns:cc="http://creativecommons.org/ns#"
    xmlns:rdf="http://www.w3.org/1999/02/22-rdf-syntax-ns#"
    xmlns="http://www.w3.org/2000/svg"
    xmlns:sodipodi="http://sodipodi.sourceforge.net/DTD/sodipodi-0.dtd"
    xmlns:inkscape="http://www.inkscape.org/namespaces/inkscape"
    width="8.9349709mm"
    height="9.038167mm"
    viewBox="0 0 8.9349709 9.0381667"
    version="1.1"
    id="svg4058"
    inkscape:version="0.92.3 (unknown)"
    sodipodi:docname="snow.svg">
    <defs
        id="defs4052" />
    <sodipodi:namedview
        id="base"
        pagecolor="#ffffff"
        bordercolor="#666666"
        borderopacity="1.0"
        inkscape:pageopacity="0.0"
        inkscape:pageshadow="2"
        inkscape:zoom="7.9195959"
        inkscape:cx="71.26028"
        inkscape:cy="10.325314"
        inkscape:document-units="mm"
        inkscape:current-layer="g4197"
        showgrid="false"
        inkscape:window-width="1920"
        inkscape:window-height="1010"
        inkscape:window-x="0"
        inkscape:window-y="34"
        inkscape:window-maximized="1" />
    <metadata
        id="metadata4055">
        <rdf:RDF>
            <cc:Work
                rdf:about="">
                <dc:format>image/svg+xml</dc:format>
                <dc:type
                    rdf:resource="http://purl.org/dc/dcmitype/StillImage" />
                <dc:title></dc:title>
            </cc:Work>
        </rdf:RDF>
    </metadata>
    <g
        inkscape:label="Layer 1"
        inkscape:groupmode="layer"
        id="layer1"
        transform="translate(-71.2204,-95.70185)">
        <g
            id="g4080"
            transform="matrix(0.35277779,0,0,0.35277779,101.92758,94.27877)">
            <g
                id="g4118"
                transform="translate(-81.915288,-7.8201969)">
                <g
                    id="g4156"
                    transform="translate(43.248387,4.5964542)">
                    <g
                        id="g4197"
                        transform="translate(-50.718333,4.9276714)">
                        <path
                            id="path4179"
                            d="m 15.117698,2.33 c 1.15071,1.46 2.206516,2.97 3.250459,4.49 1.032079,0.6 2.064159,1.21 3.096239,1.81 2.06416,-0.24 4.140182,-0.47 6.204342,-0.68 -0.830409,2.01 -1.720133,3.99 -2.716624,5.95 0,0.71 -0.01186,1.41 -0.01186,2.12 0.984628,1.95 1.886215,3.92 2.716624,5.93 -2.099749,-0.18 -4.199497,-0.37 -6.299246,-0.58 -0.996491,0.61 -2.004845,1.22 -3.001335,1.83 -1.079532,1.6 -2.18279,3.19 -3.3335,4.75 -1.150709,-1.57 -2.253967,-3.16 -3.333499,-4.76 -1.043942,-0.61 -2.0997482,-1.21 -3.155554,-1.81 -2.0641596,0.23 -4.1283192,0.46 -6.1924788,0.67 0.8185461,-2.01 1.70827,-3.98 2.6928979,-5.94 0.011863,-0.71 0.011863,-1.42 0.023726,-2.14 C 4.0495322,11.99 3.1598083,10 2.3412622,7.96 4.5240517,8.21 6.7068412,8.48 8.8777676,8.77 9.7200396,8.04 10.574175,7.31 11.380858,6.54 12.638334,5.15 13.836496,3.72 15.117698,2.33 Z"
                            inkscape:connector-curvature="0"
                            style="fill:#46b0e3;stroke-width:1.08917332" />
                        <path
                            id="path4181"
                            d="m 14.904165,4.57 c 0.462656,1.5 0.91345,3 1.340517,4.5 l 1.838763,-0.35 c -1.174436,1.44 -3.867334,4.09 0.04745,4.12 0.427067,-0.94 0.842272,-1.88 1.245613,-2.83 0.605013,0.29 1.221888,0.59 1.8269,0.88 1.565914,-0.34 3.131829,-0.68 4.709606,-1 -1.506599,0.95 -3.036925,1.88 -4.579113,2.81 l 1.767585,1.27 c -1.518462,0 -2.989472,0.12 -4.44862,0.37 v 1.32 c 1.435422,0.24 2.906432,0.37 4.401168,0.38 l -1.684544,1.27 c 1.554051,0.92 3.108102,1.84 4.650291,2.78 -1.637092,-0.31 -3.274185,-0.63 -4.911277,-0.97 -0.581286,0.3 -1.162572,0.59 -1.743859,0.89 -0.403341,-0.96 -0.818546,-1.91 -1.23375,-2.86 -3.89106,0.09 -1.293066,2.62 -0.130493,4.11 l -1.815037,-0.33 c -0.355889,1.51 -0.723642,3.01 -1.103258,4.51 -0.462656,-1.51 -0.901587,-3.02 -1.328654,-4.53 l -1.862489,0.41 C 12.946772,20 15.805752,16.91 11.855377,17.17 11.42831,18.11 11.013105,19.05 10.609764,19.99 9.9928883,19.7 9.387876,19.4 8.7828637,19.11 c -1.5659141,0.34 -3.1199653,0.67 -4.6858795,1 1.5065992,-0.95 3.0250615,-1.88 4.5435237,-2.81 l -1.755722,-1.29 c 1.5303253,0.04 3.0131985,-0.08 4.4604831,-0.36 v -1.3 C 9.9098474,14.06 8.4388371,13.93 6.9322379,13.96 l 1.70827,-1.27 C 7.0745937,11.78 5.5205425,10.85 3.9783543,9.91 c 1.6015032,0.32 3.2030063,0.65 4.8045094,0.99 0.6168753,-0.3 1.2456133,-0.6 1.8743523,-0.89 0.391478,0.95 0.79482,1.89 1.210024,2.83 3.867334,0.1 1.221888,-2.72 0.11863,-4.12 l 1.8269,0.36 c 0.355889,-1.5 0.723642,-3.01 1.091395,-4.51 z"
                            inkscape:connector-curvature="0"
                            style="fill:#f6f8f6;stroke-width:1.08917332" />
                        <path
                            id="path4183"
                            d="m 14.014441,14.17 c 2.111611,-1.19 3.487718,1.58 0.99649,2 -1.35238,-0.3 -1.684544,-0.97 -0.99649,-2 z"
                            inkscape:connector-curvature="0"
                            style="fill:#6abfe7;stroke-width:1.08917332" />
                    </g>
                </g>
            </g>
        </g>
    </g>
</svg>
